# xmcd
#
# Track frame offsets: 
#        150
#        16630
#        31624
#        47170
#        62384
#        76875
#        92969
#        104861
#        119238
#        133943
#        147608
#
# Disc length: 2239 seconds
#
# Revision: 2
# Processed by: cddbd v1.5.2PL0 Copyright (c) Steve Scherf et al.
# Submitted via: ExactAudioCopy v0.95b4
#
DISCID=9a08bd0b
DTITLE=All Star United - Love And Radiation
DYEAR=2007
DGENRE=Contemporary Christian
TTITLE0=Love And Radiation
TTITLE1=You You You (Yeah Yeah Yeah)
TTITLE2=Before You Break My Heart
TTITLE3=We Could Be Brilliant
TTITLE4=Let's Rock Tonight
TTITLE5=Jesus On The Radio
TTITLE6=There's Gotta Be Something
TTITLE7=The Song Of The Year
TTITLE8=In A World Where Nothing's Wrong (You're All Right)
TTITLE9=Like Hallelujah
TTITLE10=Take Me A Way
EXTD=
EXTT0=
EXTT1=
EXTT2=
EXTT3=
EXTT4=
EXTT5=
EXTT6=
EXTT7=
EXTT8=
EXTT9=
EXTT10=
PLAYORDER=
